# xmcd
#
# Track frame offsets:
#   150
#   15538
#   34825
#   50444
#   64482
#   74047
#   91723
#   111549
#   135812
#   142141
#   173344
#   180178
#   198293
#   221586
#   246486
#   272260
#   313625
#
# Disc length: 4420 seconds
#
# Revision: 0
# Processed by: cddbd v1.5.2PL0 Copyright (c) Steve Scherf et al.
# Submitted via: GXTranscoder 2.0.1939
#
DISCID=f1114211
DTITLE=KOKOTINY - M
DYEAR=2000
DGENRE=Books and Spoken
TTITLE0=to-je-ze-zacpu-mas 1
TTITLE1=HOLLWOOD 2
TTITLE2=M 3
TTITLE3=ROZBITE VALCE V TELEFONU 4
TTITLE4=JA BYCH ZKUSIL REPOVAT 5
TTITLE5=KVALITNICESKYREP.6
TTITLE6=LADOVSKA ZIMA 7
TTITLE7=MIKROVLNKA 8
TTITLE8=RADEK 9
TTITLE9=M100
TTITLE10=M11
TTITLE11=M12
TTITLE12=IZER1 13
TTITLE13=IZER2 14
TTITLE14=IZER3 15
TTITLE15=M16
TTITLE16=M17
EXTD=M
EXTT0=
EXTT1=
EXTT2=
EXTT3=
EXTT4=
EXTT5=
EXTT6=
EXTT7=
EXTT8=
EXTT9=
EXTT10=
EXTT11=
EXTT12=
EXTT13=
EXTT14=
EXTT15=
EXTT16=
PLAYORDER=
